<?xml version="1.0" standalone="no"?>
<!DOCTYPE svg PUBLIC "-//W3C//DTD SVG 20010904//EN"
 "http://www.w3.org/TR/2001/REC-SVG-20010904/DTD/svg10.dtd">
<svg version="1.0" xmlns="http://www.w3.org/2000/svg"
 width="152.000000pt" height="152.000000pt" viewBox="0 0 152.000000 152.000000"
 preserveAspectRatio="xMidYMid meet">
<metadata>
Created by potrace 1.11, written by Peter Selinger 2001-2013
</metadata>
<g transform="translate(0.000000,152.000000) scale(0.100000,-0.100000)"
fill="#000000" stroke="none">
<path d="M0 760 l0 -760 760 0 760 0 0 760 0 760 -760 0 -760 0 0 -760z m862
616 c150 -32 271 -124 335 -254 37 -75 38 -78 38 -191 0 -108 -3 -122 -33
-198 -61 -151 -190 -337 -349 -501 l-93 -97 -93 97 c-159 164 -288 350 -349
501 -30 76 -33 90 -33 198 0 113 1 116 38 191 63 128 185 221 331 253 80 18
127 18 208 1z"/>
<path d="M685 1096 c-157 -70 -128 -310 41 -342 169 -32 283 174 166 300 -51
54 -140 72 -207 42z"/>
</g>
</svg>
