<?xml version="1.0" encoding="utf-8"?>
<!-- Generator: Adobe Illustrator 16.0.0, SVG Export Plug-In . SVG Version: 6.00 Build 0)  -->
<!DOCTYPE svg PUBLIC "-//W3C//DTD SVG 1.1//EN" "http://www.w3.org/Graphics/SVG/1.1/DTD/svg11.dtd">
<svg version="1.1" id="Layer_1" xmlns="http://www.w3.org/2000/svg" xmlns:xlink="http://www.w3.org/1999/xlink" x="0px" y="0px"
	 width="203.277px" height="191.395px" viewBox="0 0 203.277 191.395" enable-background="new 0 0 203.277 191.395"
	 xml:space="preserve">
<polygon fill="#3BC7F6" points="0,47.529 86,95.057 86,191.395 0,143.545 "/>
<polygon fill="#59D9FC" points="168,47.846 168,145.457 86,191.395 86,95.695 "/>
<polygon fill="#2EB6DB" points="83.136,0 168,47.846 86,96.521 0,47.529 "/>
<circle fill="#A7F4FC" cx="161.457" cy="148.827" r="41.82"/>
<g>
	<path fill="#00D3FF" d="M185,135.854h-42c-1.104,0-2-0.896-2-2s0.896-2,2-2h42c1.104,0,2,0.896,2,2S186.104,135.854,185,135.854z"
		/>
</g>
<g>
	<polygon fill="#00D3FF" points="174,123.087 190.52,134.35 174,145.612 	"/>
	<path fill="#00D3FF" d="M174,147.612c-0.32,0-0.642-0.077-0.935-0.231c-0.655-0.347-1.065-1.027-1.065-1.769v-22.525
		c0-0.741,0.41-1.422,1.065-1.769c0.654-0.344,1.448-0.301,2.062,0.116l16.52,11.263c0.546,0.372,0.873,0.991,0.873,1.652
		s-0.327,1.28-0.873,1.652l-16.52,11.263C174.788,147.495,174.395,147.612,174,147.612z M176,126.871v14.957l10.969-7.479
		L176,126.871z"/>
</g>
<g>
	<path fill="#00D3FF" d="M185,161.854h-42c-1.104,0-2-0.896-2-2s0.896-2,2-2h42c1.104,0,2,0.896,2,2S186.104,161.854,185,161.854z"
		/>
</g>
<g>
	<polygon fill="#00D3FF" points="151,171.283 134.479,160.02 151,148.758 	"/>
	<path fill="#00D3FF" d="M151,173.283c-0.395,0-0.788-0.117-1.127-0.348l-16.521-11.264c-0.546-0.372-0.873-0.991-0.873-1.652
		s0.327-1.28,0.873-1.652l16.521-11.262c0.614-0.417,1.409-0.46,2.062-0.116c0.655,0.347,1.065,1.027,1.065,1.769v22.525
		c0,0.741-0.41,1.422-1.065,1.769C151.642,173.206,151.32,173.283,151,173.283z M138.029,160.02L149,167.499v-14.957L138.029,160.02
		z"/>
</g>
</svg>
